#N canvas 827 239 734 565 12;
#X obj 342 237 t b f;
#X obj 342 285 ==;
#X obj 272 354 sel 1;
#X obj 288 499 outlet;
#X obj 272 390 1;
#X obj 342 354 sel 1;
#X obj 412 354 sel 1;
#X obj 272 143 inlet switch up;
#X obj 420 143 inlet switch down;
#X obj 342 390 0.5;
#X obj 412 390 0;
#X connect 0 0 1 0;
#X connect 0 1 1 1;
#X connect 1 0 5 0;
#X connect 2 0 4 0;
#X connect 4 0 3 0;
#X connect 5 0 9 0;
#X connect 6 0 10 0;
#X connect 7 0 1 0;
#X connect 7 0 2 0;
#X connect 8 0 0 0;
#X connect 8 0 6 0;
#X connect 9 0 3 0;
#X connect 10 0 3 0;
