#N canvas 827 239 734 565 12;
#X obj 446 425 t b b;
#X obj 446 455 del 10;
#X obj 446 485 0;
#X obj 516 485 1;
#X obj 446 392 metro;
#X obj 446 221 inlet hz;
#X obj 360 257 loadbang;
#X obj 487 582 outlet;
#X obj 452 320 1000;
#X obj 446 276 t b;
#X obj 498 357 /;
#X connect 0 0 1 0;
#X connect 0 1 3 0;
#X connect 1 0 2 0;
#X connect 2 0 7 0;
#X connect 3 0 7 0;
#X connect 4 0 0 0;
#X connect 5 0 10 1;
#X connect 5 0 9 0;
#X connect 6 0 4 0;
#X connect 8 0 10 0;
#X connect 9 0 8 0;
#X connect 10 0 4 1;
