#N canvas 827 239 734 565 12;
#X obj 165 64 inlet;
#X obj 165 101 unpack f f f f;
#X floatatom 165 231 5 0 0 0 - - - 12;
#X floatatom 185 206 5 0 0 0 - - - 12;
#X floatatom 206 181 5 0 0 0 - - - 12;
#X floatatom 227 156 5 0 0 0 - - - 12;
#X obj 165 311 osc~;
#X obj 165 270 line~;
#X obj 165 359 *~;
#X obj 165 411 outlet~;
#X connect 0 0 1 0;
#X connect 1 0 2 0;
#X connect 1 1 3 0;
#X connect 1 2 4 0;
#X connect 1 3 5 0;
#X connect 2 0 7 0;
#X connect 3 0 8 1;
#X connect 6 0 8 0;
#X connect 7 0 6 0;
#X connect 8 0 9 0;
