#N canvas 827 239 734 565 12;
#X obj 165 64 inlet;
#X obj 165 101 unpack f f f f;
#X floatatom 147 139 5 0 0 0 - - - 12;
#X floatatom 196 139 5 0 0 0 - - - 12;
#X obj 147 379 osc~;
#X obj 165 427 *~;
#X obj 165 468 outlet~;
#X obj 231 64 inlet;
#X obj 279 64 inlet;
#X obj 147 340 line~;
#X obj 227 340 line~;
#X obj 147 312 pack 0 20;
#X obj 227 305 pack 0 20;
#X connect 0 0 1 0;
#X connect 1 0 2 0;
#X connect 1 1 3 0;
#X connect 2 0 11 0;
#X connect 3 0 12 0;
#X connect 4 0 5 0;
#X connect 5 0 6 0;
#X connect 7 0 11 1;
#X connect 8 0 12 1;
#X connect 9 0 4 0;
#X connect 10 0 5 1;
#X connect 11 0 9 0;
#X connect 12 0 10 0;
