#N canvas 827 239 734 565 12;
#X obj 218 589 dac~;
#X obj 70 171 sigmund~ -npeak 6 peaks;
#X obj 70 206 route 0 1 2 3 4 5;
#X obj 47 265 freq-extractor~;
#X obj 47 298 /~ 6;
#X obj 102 298 freq-extractor~;
#X obj 102 334 /~ 6;
#X obj 72 368 +~;
#X obj 112 418 +~;
#X obj 153 328 freq-extractor~;
#X obj 153 368 /~ 6;
#X obj 153 456 +~;
#X obj 202 368 freq-extractor~;
#X obj 185 401 /~ 6;
#X obj 185 500 +~;
#X obj 236 401 freq-extractor~;
#X obj 218 437 /~ 6;
#X obj 218 541 +~;
#X obj 263 437 freq-extractor~;
#X obj 247 474 /~ 6;
#X obj 87 117 adc~;
#X connect 1 0 2 0;
#X connect 2 0 3 0;
#X connect 2 1 5 0;
#X connect 2 2 9 0;
#X connect 2 3 12 0;
#X connect 2 4 15 0;
#X connect 2 5 18 0;
#X connect 3 0 4 0;
#X connect 4 0 7 0;
#X connect 5 0 6 0;
#X connect 6 0 7 1;
#X connect 7 0 8 0;
#X connect 8 0 11 0;
#X connect 9 0 10 0;
#X connect 10 0 8 1;
#X connect 11 0 14 0;
#X connect 12 0 13 0;
#X connect 13 0 11 1;
#X connect 14 0 17 0;
#X connect 15 0 16 0;
#X connect 16 0 14 1;
#X connect 17 0 0 0;
#X connect 18 0 19 0;
#X connect 19 0 17 1;
#X connect 20 0 1 0;
