#N canvas 827 239 734 565 12;
#X obj 119 351 freq-extractor~;
#X obj 230 351 freq-extractor~;
#X obj 344 351 freq-extractor~;
#X obj 453 351 freq-extractor~;
#X obj 567 351 freq-extractor~;
#X obj 135 518 outlet~;
#X obj 70 115 inlet~;
#X obj 270 109 inlet;
#X obj 356 109 inlet;
#X obj 70 206 route 0 1 2 3 4 5 6 7 8 9;
#X obj 3 351 freq-extractor~;
#X obj 70 158 sigmund~ -npeak 6 peaks;
#X connect 0 0 5 0;
#X connect 1 0 5 0;
#X connect 2 0 5 0;
#X connect 3 0 5 0;
#X connect 4 0 5 0;
#X connect 6 0 11 0;
#X connect 7 0 0 1;
#X connect 7 0 10 1;
#X connect 7 0 1 1;
#X connect 7 0 2 1;
#X connect 7 0 3 1;
#X connect 7 0 4 1;
#X connect 8 0 0 2;
#X connect 8 0 10 2;
#X connect 8 0 2 2;
#X connect 8 0 1 2;
#X connect 8 0 3 2;
#X connect 8 0 4 2;
#X connect 9 0 10 0;
#X connect 9 1 0 0;
#X connect 9 2 1 0;
#X connect 9 3 2 0;
#X connect 9 4 3 0;
#X connect 9 5 4 0;
#X connect 10 0 5 0;
#X connect 11 0 9 0;
