#N canvas 827 239 734 565 12;
#X obj 267 159 hothouse;
#X obj 155 356 s rate1;
#X obj 212 356 s rate2;
#X obj 463 30 r rate2;
#X obj 271 30 r rate1;
#X obj 280 356 s depth1;
#X obj 346 356 s depth2;
#X obj 155 314 + 0.1;
#X obj 212 314 + 0.1;
#X obj 155 270 * 10;
#X obj 212 270 * 10;
#X obj 439 83 blinker;
#X obj 271 80 blinker, f 8;
#X obj 422 215 s toggle1;
#X obj 499 215 s toggle2;
#X obj 259 420 * 20000;
#X obj 259 461 + 1;
#X obj 259 504 s crossover;
#X obj 112 153 knob 50 0 1 0 0 empty empty #E4E4E4 #B7B7B7 #4D4D4D 1 0 0 0 1 270 0 0 0 empty empty 0 12 6 -15 0 1 0 0;
#X obj 168 153 knob 50 0 1 0 0 empty empty #E4E4E4 #B7B7B7 #4D4D4D 1 0 0 0 1 270 0 0 0 empty empty 0 12 6 -15 0 1 0 0;
#X obj 135 125 loadbang;
#X obj 112 65 knob 50 0 1 0 0 empty empty #E4E4E4 #B7B7B7 #4D4D4D 1 0 0 0 1 270 0 0 0 empty empty 0 12 6 -15 0 1 0 0;
#X obj 168 65 knob 50 0 1 0 0 empty empty #E4E4E4 #B7B7B7 #4D4D4D 1 0 0 0 1 270 0 0 0 empty empty 0 12 6 -15 0 1 0 0;
#X obj 135 37 loadbang;
#X obj 609 420 r rate1;
#X obj 660 420 r depth1;
#X obj 655 583 dac~;
#X obj 422 325 knob 50 0 1 0 0 empty empty #E4E4E4 #B7B7B7 #4D4D4D 1 0 0 0 1 270 0 0 0 empty empty 0 12 6 -15 0 1 0 0;
#X obj 589 159 tgl 25 0 empty empty empty 17 7 0 10 #e4e4e4 #4d4d4d #373737 0 1;
#X obj 516 159 tgl 25 0 empty empty empty 17 7 0 10 #e4e4e4 #4d4d4d #373737 0 1;
#X obj 673 447 r toggle1;
#X obj 737 268 r crossover;
#X obj 737 399 hv.hip~;
#X obj 589 392 hv.lop~;
#X obj 757 420 r rate2;
#X obj 809 420 r depth2;
#X obj 880 420 r toggle2;
#X obj 660 533 +~;
#X obj 660 260 adc~;
#X obj 271 120 *;
#X obj 440 120 *;
#X obj 339 90 r toggle1;
#X obj 499 89 r toggle2;
#X obj 589 468 trem~;
#X obj 737 476 trem~;
#X connect 0 0 9 0;
#X connect 0 1 10 0;
#X connect 0 2 15 0;
#X connect 0 3 5 0;
#X connect 0 4 6 0;
#X connect 0 9 13 0;
#X connect 0 10 14 0;
#X connect 3 0 11 0;
#X connect 4 0 12 0;
#X connect 7 0 1 0;
#X connect 8 0 2 0;
#X connect 9 0 7 0;
#X connect 10 0 8 0;
#X connect 11 0 40 0;
#X connect 12 0 39 0;
#X connect 15 0 16 0;
#X connect 16 0 17 0;
#X connect 18 0 9 0;
#X connect 19 0 5 0;
#X connect 20 0 18 0;
#X connect 20 0 19 0;
#X connect 20 0 27 0;
#X connect 21 0 10 0;
#X connect 22 0 6 0;
#X connect 23 0 21 0;
#X connect 23 0 22 0;
#X connect 24 0 43 1;
#X connect 25 0 43 2;
#X connect 27 0 15 0;
#X connect 28 0 14 0;
#X connect 29 0 13 0;
#X connect 30 0 43 3;
#X connect 31 0 32 1;
#X connect 31 0 33 1;
#X connect 32 0 44 0;
#X connect 33 0 43 0;
#X connect 34 0 44 1;
#X connect 35 0 44 2;
#X connect 36 0 44 3;
#X connect 37 0 26 0;
#X connect 38 0 32 0;
#X connect 38 0 33 0;
#X connect 39 0 0 0;
#X connect 40 0 0 1;
#X connect 41 0 39 1;
#X connect 42 0 40 1;
#X connect 43 0 37 0;
#X connect 44 0 37 1;
