#N canvas 827 239 734 565 12;
#X obj 289 97 r knob1 @hv_param;
#X obj 289 143 change;
#X obj 289 185 outlet knob1;
#X obj 426 143 change;
#X obj 703 143 change;
#X obj 841 143 change;
#X obj 985 143 change;
#X obj 563 143 change;
#X obj 426 97 r knob2 @hv_param;
#X obj 563 97 r knob3 @hv_param;
#X obj 703 97 r knob4 @hv_param;
#X obj 841 97 r knob5 @hv_param;
#X obj 985 97 r knob6 @hv_param;
#X obj 426 185 outlet knob2;
#X obj 563 185 outlet knob3;
#X obj 703 185 outlet knob4;
#X obj 841 185 outlet knob5;
#X obj 985 185 outlet knob6;
#X obj 1862 103 r fs1 @hv_param;
#X obj 18 145 clip 0 1;
#X obj 18 185 s led1 @hv_param;
#X obj 144 145 clip 0 1;
#X obj 144 185 s led2 @hv_param;
#X obj 18 97 inlet led1;
#X obj 144 97 inlet led2;
#X obj 1862 144 change;
#X obj 1862 186 outlet fs1;
#X obj 2012 144 change;
#X obj 2012 103 r fs2 @hv_param;
#X obj 2012 186 outlet fs2;
#X obj 1141 143 3-way-switch;
#X obj 1141 69 r sw1_up @hv_param;
#X obj 1209 103 r sw1_down @hv_param;
#X obj 1374 143 3-way-switch;
#X obj 1374 69 r sw2_up @hv_param;
#X obj 1442 103 r sw2_down @hv_param;
#X obj 1613 143 3-way-switch;
#X obj 1613 69 r sw3_up @hv_param;
#X obj 1681 103 r sw3_down @hv_param;
#X obj 1141 185 outlet sw1;
#X obj 1374 185 outlet sw2;
#X obj 1613 185 outlet sw3;
#X connect 0 0 1 0;
#X connect 1 0 2 0;
#X connect 3 0 13 0;
#X connect 4 0 15 0;
#X connect 5 0 16 0;
#X connect 6 0 17 0;
#X connect 7 0 14 0;
#X connect 8 0 3 0;
#X connect 9 0 7 0;
#X connect 10 0 4 0;
#X connect 11 0 5 0;
#X connect 12 0 6 0;
#X connect 18 0 25 0;
#X connect 19 0 20 0;
#X connect 21 0 22 0;
#X connect 23 0 19 0;
#X connect 24 0 21 0;
#X connect 25 0 26 0;
#X connect 27 0 29 0;
#X connect 28 0 27 0;
#X connect 30 0 39 0;
#X connect 31 0 30 0;
#X connect 32 0 30 1;
#X connect 33 0 40 0;
#X connect 34 0 33 0;
#X connect 35 0 33 1;
#X connect 36 0 41 0;
#X connect 37 0 36 0;
#X connect 38 0 36 1;
