#N canvas 827 239 734 565 12;
#X obj 289 23 r knob1 @hv_param;
#X obj 289 143 change;
#X obj 289 185 outlet knob1;
#X obj 426 143 change;
#X obj 703 143 change;
#X obj 841 143 change;
#X obj 985 143 change;
#X obj 563 143 change;
#X obj 426 23 r knob2 @hv_param;
#X obj 563 23 r knob3 @hv_param;
#X obj 703 23 r knob4 @hv_param;
#X obj 841 23 r knob5 @hv_param;
#X obj 985 23 r knob6 @hv_param;
#X obj 426 185 outlet knob2;
#X obj 563 185 outlet knob3;
#X obj 703 185 outlet knob4;
#X obj 841 185 outlet knob5;
#X obj 985 185 outlet knob6;
#X obj 18 145 clip 0 1;
#X obj 18 185 s led1 @hv_param;
#X obj 144 145 clip 0 1;
#X obj 144 185 s led2 @hv_param;
#X obj 18 97 inlet led1;
#X obj 144 97 inlet led2;
#X obj 1944 239 outlet fs1;
#X obj 2094 239 outlet fs2;
#X obj 1141 143 3-way-switch;
#X obj 1410 143 3-way-switch;
#X obj 1665 143 3-way-switch;
#X obj 1141 239 outlet sw1;
#X obj 1665 239 outlet sw3;
#X obj 289 86 int;
#X obj 426 83 int;
#X obj 563 83 int;
#X obj 703 83 int;
#X obj 841 83 int;
#X obj 985 83 int;
#X obj 1141 69 r sw1_up_press @hv_param;
#X obj 1209 103 r sw1_down_press @hv_param;
#X obj 1410 69 r sw2_up_press @hv_param;
#X obj 1478 103 r sw2_down_press @hv_param;
#X obj 1665 69 r sw3_up_press @hv_param;
#X obj 1733 103 r sw3_down_press @hv_param;
#X obj 1944 103 r fs1_press @hv_param;
#X obj 2094 103 r fs2_press @hv_param;
#X obj 1141 192 change;
#X obj 1410 192 change;
#X obj 1410 239 outlet sw2;
#X obj 1665 192 change;
#X obj 1944 202 tgl 25 0 empty empty empty 17 7 0 10 #e4e4e4 #4d4d4d #373737 0 1;
#X obj 1944 167 sel 1;
#X obj 2093 192 tgl 25 0 empty empty empty 17 7 0 10 #e4e4e4 #4d4d4d #373737 0 1;
#X obj 2094 160 sel 1;
#X obj 2094 132 change;
#X obj 1944 132 change;
#X obj 289 55 * 1000;
#X obj 289 113 / 1000;
#X obj 426 52 * 1000;
#X obj 426 110 / 1000;
#X obj 563 52 * 1000;
#X obj 563 110 / 1000;
#X obj 703 52 * 1000;
#X obj 703 110 / 1000;
#X obj 841 52 * 1000;
#X obj 841 110 / 1000;
#X obj 985 52 * 1000;
#X obj 985 110 / 1000;
#X connect 0 0 55 0;
#X connect 1 0 2 0;
#X connect 3 0 13 0;
#X connect 4 0 15 0;
#X connect 5 0 16 0;
#X connect 6 0 17 0;
#X connect 7 0 14 0;
#X connect 8 0 57 0;
#X connect 9 0 59 0;
#X connect 10 0 61 0;
#X connect 11 0 63 0;
#X connect 12 0 65 0;
#X connect 18 0 19 0;
#X connect 20 0 21 0;
#X connect 22 0 18 0;
#X connect 23 0 20 0;
#X connect 26 0 45 0;
#X connect 27 0 46 0;
#X connect 28 0 48 0;
#X connect 31 0 56 0;
#X connect 32 0 58 0;
#X connect 33 0 60 0;
#X connect 34 0 62 0;
#X connect 35 0 64 0;
#X connect 36 0 66 0;
#X connect 37 0 26 0;
#X connect 38 0 26 1;
#X connect 39 0 27 0;
#X connect 40 0 27 1;
#X connect 41 0 28 0;
#X connect 42 0 28 1;
#X connect 43 0 54 0;
#X connect 44 0 53 0;
#X connect 45 0 29 0;
#X connect 46 0 47 0;
#X connect 48 0 30 0;
#X connect 49 0 24 0;
#X connect 50 0 49 0;
#X connect 51 0 25 0;
#X connect 52 0 51 0;
#X connect 53 0 52 0;
#X connect 54 0 50 0;
#X connect 55 0 31 0;
#X connect 56 0 1 0;
#X connect 57 0 32 0;
#X connect 58 0 3 0;
#X connect 59 0 33 0;
#X connect 60 0 7 0;
#X connect 61 0 34 0;
#X connect 62 0 4 0;
#X connect 63 0 35 0;
#X connect 64 0 5 0;
#X connect 65 0 36 0;
#X connect 66 0 6 0;
