#N canvas 827 239 734 565 12;
#X obj 312 259 inlet~;
#X obj 312 610 outlet~;
#X obj 424 180 inlet hz;
#X obj 497 180 inlet depth;
#X obj 424 289 osc~;
#X obj 424 316 *~ 0.5;
#X obj 424 357 +~ 0.5;
#X obj 553 222 * -1;
#X obj 553 267 + 1;
#X obj 448 458 +~;
#X obj 439 424 *~;
#X obj 553 339 line~;
#X obj 497 281 line~;
#X obj 424 248 line~;
#X msg 553 301 \$1 10;
#X msg 497 228 \$1 10;
#X msg 424 212 \$1 10;
#X obj 624 180 inlet bypass;
#X obj 624 319 line~;
#X msg 624 270 \$1 10;
#X obj 636 376 *~ -1;
#X obj 636 412 +~ 1;
#X obj 292 463 *~;
#X obj 312 544 +~;
#X obj 374 458 *~;
#X obj 405 506 *~;
#X connect 0 0 22 0;
#X connect 0 0 24 0;
#X connect 2 0 16 0;
#X connect 3 0 7 0;
#X connect 3 0 15 0;
#X connect 4 0 5 0;
#X connect 5 0 6 0;
#X connect 6 0 10 0;
#X connect 7 0 8 0;
#X connect 8 0 14 0;
#X connect 9 0 25 1;
#X connect 10 0 9 0;
#X connect 11 0 9 1;
#X connect 12 0 10 1;
#X connect 13 0 4 0;
#X connect 14 0 11 0;
#X connect 15 0 12 0;
#X connect 16 0 13 0;
#X connect 17 0 19 0;
#X connect 18 0 20 0;
#X connect 18 0 24 1;
#X connect 19 0 18 0;
#X connect 20 0 21 0;
#X connect 21 0 22 1;
#X connect 22 0 23 0;
#X connect 23 0 1 0;
#X connect 24 0 25 0;
#X connect 25 0 23 1;
