#N canvas 827 239 734 565 12;
#X obj 361 237 t b f;
#X obj 342 285 ==;
#X obj 272 318 change;
#X obj 272 354 sel 1;
#X obj 288 499 outlet;
#X obj 272 390 1;
#X obj 342 318 change;
#X obj 342 354 sel 1;
#X obj 342 390 0;
#X obj 412 318 change;
#X obj 412 354 sel 1;
#X obj 412 390 -1;
#X obj 342 178 tgl 25 0 empty empty empty 17 7 0 10 #e4e4e4 #4d4d4d #373737 0 1;
#X obj 412 178 tgl 25 0 empty empty empty 17 7 0 10 #e4e4e4 #4d4d4d #373737 0 1;
#X obj 342 119 inlet switch up;
#X obj 450 119 inlet switch down;
#X connect 0 0 1 0;
#X connect 0 1 1 1;
#X connect 1 0 6 0;
#X connect 2 0 3 0;
#X connect 3 0 5 0;
#X connect 5 0 4 0;
#X connect 6 0 7 0;
#X connect 7 0 8 0;
#X connect 8 0 4 0;
#X connect 9 0 10 0;
#X connect 10 0 11 0;
#X connect 11 0 4 0;
#X connect 12 0 1 0;
#X connect 12 0 2 0;
#X connect 13 0 9 0 32.................5.........fN.........LG....;
#X connect 13 0 0 0;
#X connect 14 0 12 0;
#X connect 15 0 13 0;
